<?xml version="1.0" encoding="UTF-8"?>
<!--
  SPDX-FileCopyrightText: 2026 Kevin Sträßler
  SPDX-License-Identifier: AGPL-3.0-or-later
-->
<svg xmlns="http://www.w3.org/2000/svg" viewBox="0 0 32 32" role="img" aria-labelledby="title">
	<title id="title">User Lockdown</title>
	<path d="M16 1.5 27 5.7v8.5c0 7.4-4.4 13.6-11 16.3C9.4 27.8 5 21.6 5 14.2V5.7L16 1.5Zm0 3.2L8 7.8v6.4c0 5.8 3.1 10.6 8 13 4.9-2.4 8-7.2 8-13V7.8l-8-3.1Z"/>
	<circle cx="16" cy="11" r="3.2"/>
	<path d="M10.5 19.4c0-3.1 2.5-5.6 5.5-5.6s5.5 2.5 5.5 5.6v1.1h-2.8v-1.1c0-1.6-1.2-2.8-2.7-2.8s-2.7 1.2-2.7 2.8v1.1h-2.8v-1.1Z"/>
	<rect x="12.2" y="18.4" width="7.6" height="5.8" rx="1.2"/>
	<circle cx="16" cy="21" r="1"/>
</svg>
